<?xml version="1.0" encoding="UTF-8" standalone="no"?>
<!DOCTYPE svg PUBLIC "-//W3C//DTD SVG 1.1//EN" "http://www.w3.org/Graphics/SVG/1.1/DTD/svg11.dtd">
<svg width="100%" height="100%" viewBox="0 0 206 105" version="1.1" xmlns="http://www.w3.org/2000/svg" xmlns:xlink="http://www.w3.org/1999/xlink" xml:space="preserve" xmlns:serif="http://www.serif.com/" style="fill-rule:evenodd;clip-rule:evenodd;stroke-miterlimit:10;">
    <g transform="matrix(1,0,0,1,-290.6,-94.91)">
        <path d="M310.32,104.77C310.32,110.21 305.91,114.63 300.46,114.63C295.02,114.63 290.6,110.22 290.6,104.77C290.6,99.33 295.01,94.91 300.46,94.91C305.91,94.92 310.32,99.33 310.32,104.77ZM290.61,177.4L324.28,177.4L329.29,165.22L343.14,165.22L343.14,154L350.78,154L354.84,166.42L380.39,166.42C385.48,166.24 390.1,164.64 394.24,161.64L394.24,164.74L440.33,164.74C474.97,163.74 478.7,103.34 440.09,98.36L409.52,98.36L409.52,128.45L375.85,128.45L375.85,142.06L391.13,142.06C387.54,151.05 377.26,152.8 368.68,148.01L360.32,125.34C365.1,110.78 383.6,109.69 390.93,120.96L409.51,120.85C402.63,96.12 371.23,88.46 352.92,106.95L348.15,94.91L338.08,94.91L338.11,108.14L331.66,108.14L309,166.41L309,115.79L290.61,115.79L290.61,177.4ZM426.99,150.81L426.99,112.97L437.58,112.97C455.95,118.45 456.07,150.08 436,150.81L426.99,150.81ZM340.85,131.22L340.85,128.06L346.08,140.96L340,140.96L340,152.15L333.31,152.15L340.85,131.22Z" style="fill:rgb(130,178,217);fill-rule:nonzero;"/>
        <path d="M377.47,140.71L393.29,140.71L393.29,143.02C389.4,152.22 379.56,155.07 369.44,151.17L374.85,164.34C382.78,164.89 390.6,163.2 396.72,157.58L396.69,162.6L409.34,162.6L409.34,129.87L377.7,129.87L377.47,140.71Z" style="fill:url(#_Linear1);fill-rule:nonzero;"/>
        <path d="M465.37,129.14C464.27,115.84 456.68,103.35 440.74,99.82L411.54,99.82L411.54,162.76L432,162.7L440.5,162.76C455.71,162.77 466.8,146.44 465.37,129.14ZM437.82,152.88L425.17,152.88L425.17,110.78L438.52,111.02C446.79,114 451.83,120.47 452.91,129.27L453.03,131.29C453.95,142.55 448.71,150.02 437.82,152.88Z" style="fill:rgb(237,55,37);fill-rule:nonzero;stroke:black;stroke-width:0.25px;"/>
        <path d="M307.14,176L292.54,176L292.54,117.6L307.14,117.6L307.14,176ZM308.36,176L322.72,176L328.56,163.59L341.7,163.59L341.7,154.1L330.75,154.1L339.27,130.25L339.27,119.3L340.17,110.05L333.18,110.05L308.36,176ZM340.17,110.05L339.27,119.3L348.27,143.03L341.7,143.03L341.7,151.91L351.43,151.91L356.42,163.59L372.6,163.59L346.8,96.18L340.23,96.18L340.17,110.05ZM358.73,121.73C366.93,109.37 381.38,107.16 391.86,118.65L406.57,118.52C395.65,96.17 370.91,91.82 353.77,108.96L358.73,121.73ZM300.46,96.79C296.05,96.79 292.48,100.36 292.48,104.77C292.48,109.18 296.05,112.75 300.46,112.75C304.87,112.75 308.44,109.18 308.44,104.77C308.45,100.36 304.87,96.79 300.46,96.79Z" style="fill:url(#_Linear2);fill-rule:nonzero;stroke:black;stroke-width:0.25px;"/>
        <path d="M307.14,148.01L307.14,176L292.54,176L292.48,144.21L307.14,148.01ZM322.72,176L328.56,163.59L341.7,163.59L341.7,154.1L330.75,154.1L331.58,151.79L318.14,150L308.36,176L322.72,176ZM351.99,153.22L356.42,163.59L372.6,163.59L368.63,153.22L351.99,153.22ZM374.85,164.35C382.88,165.11 390.58,162.75 396.72,157.59L396.69,162.61L409.34,162.61L409.34,135.03L377.46,140.71L393.28,140.71L393.28,143.02C388.12,152.54 379.41,154.94 369.43,151.17L370.27,153.21L374.85,164.35Z" style="fill:rgb(34,31,31);fill-opacity:0.4;fill-rule:nonzero;"/>
        <path d="M411.54,134.27L411.54,162.77L440.5,162.77C455.93,162.17 466.25,147.19 465.37,129.15L452.91,129.28C454.48,139.24 450.43,149.77 437.82,152.88L425.17,152.88L425.17,131.6L411.54,134.27Z" style="fill:rgb(163,41,35);fill-opacity:0.4;fill-rule:nonzero;"/>
        <rect x="331.93" y="169.56" width="1.45" height="10.97" style="fill:white;fill-rule:nonzero;"/>
        <path d="M335.77,180.54L335.77,172.58L336.98,172.58L336.98,173.71C337.56,172.84 338.41,172.4 339.51,172.4C339.99,172.4 340.43,172.49 340.83,172.66C341.23,172.83 341.53,173.06 341.73,173.34C341.93,173.62 342.07,173.95 342.15,174.34C342.2,174.59 342.22,175.03 342.22,175.65L342.22,180.54L340.87,180.54L340.87,175.7C340.87,175.15 340.82,174.74 340.71,174.47C340.6,174.2 340.42,173.98 340.15,173.82C339.88,173.66 339.57,173.58 339.21,173.58C338.64,173.58 338.14,173.76 337.72,174.13C337.3,174.5 337.1,175.18 337.1,176.2L337.1,180.54L335.77,180.54Z" style="fill:white;fill-rule:nonzero;"/>
        <path d="M347.24,179.32L347.43,180.51C347.05,180.59 346.71,180.63 346.41,180.63C345.92,180.63 345.54,180.55 345.27,180.4C345,180.24 344.81,180.04 344.7,179.79C344.59,179.54 344.54,179.01 344.54,178.2L344.54,173.63L343.55,173.63L343.55,172.58L344.54,172.58L344.54,170.61L345.88,169.8L345.88,172.58L347.23,172.58L347.23,173.63L345.88,173.63L345.88,178.28C345.88,178.66 345.9,178.91 345.95,179.02C346,179.13 346.07,179.22 346.18,179.28C346.29,179.34 346.44,179.38 346.64,179.38C346.8,179.38 347,179.36 347.24,179.32Z" style="fill:white;fill-rule:nonzero;"/>
        <path d="M354,177.97L355.39,178.14C355.17,178.95 354.76,179.59 354.17,180.03C353.58,180.48 352.82,180.7 351.89,180.7C350.73,180.7 349.81,180.34 349.12,179.63C348.44,178.91 348.1,177.91 348.1,176.62C348.1,175.28 348.44,174.24 349.13,173.51C349.82,172.77 350.71,172.4 351.81,172.4C352.87,172.4 353.74,172.76 354.41,173.49C355.08,174.21 355.42,175.23 355.42,176.54C355.42,176.62 355.42,176.74 355.41,176.9L349.48,176.9C349.53,177.77 349.78,178.44 350.22,178.91C350.66,179.37 351.22,179.61 351.88,179.61C352.37,179.61 352.8,179.48 353.15,179.22C353.52,178.95 353.8,178.54 354,177.97ZM349.58,175.79L354.02,175.79C353.96,175.12 353.79,174.62 353.51,174.28C353.08,173.76 352.52,173.5 351.84,173.5C351.22,173.5 350.7,173.71 350.28,174.12C349.86,174.54 349.62,175.09 349.58,175.79Z" style="fill:white;fill-rule:nonzero;"/>
        <path d="M357.07,180.54L357.07,172.58L358.28,172.58L358.28,173.79C358.59,173.23 358.87,172.85 359.14,172.67C359.4,172.49 359.69,172.4 360,172.4C360.45,172.4 360.92,172.55 361.38,172.84L360.92,174.09C360.59,173.89 360.26,173.8 359.93,173.8C359.64,173.8 359.37,173.89 359.14,174.07C358.91,174.25 358.74,174.49 358.64,174.81C358.49,175.29 358.42,175.81 358.42,176.38L358.42,180.54L357.07,180.54Z" style="fill:white;fill-rule:nonzero;"/>
        <path d="M362.19,180.54L362.19,172.58L363.4,172.58L363.4,173.71C363.98,172.84 364.83,172.4 365.93,172.4C366.41,172.4 366.85,172.49 367.25,172.66C367.65,172.83 367.95,173.06 368.15,173.34C368.35,173.62 368.49,173.95 368.57,174.34C368.62,174.59 368.64,175.03 368.64,175.65L368.64,180.54L367.29,180.54L367.29,175.7C367.29,175.15 367.24,174.74 367.13,174.47C367.02,174.2 366.84,173.98 366.57,173.82C366.3,173.66 365.99,173.58 365.63,173.58C365.06,173.58 364.56,173.76 364.14,174.13C363.72,174.5 363.52,175.18 363.52,176.2L363.52,180.54L362.19,180.54Z" style="fill:white;fill-rule:nonzero;"/>
        <path d="M375.91,179.55C375.41,179.97 374.93,180.27 374.47,180.45C374.01,180.62 373.51,180.71 372.98,180.71C372.11,180.71 371.44,180.5 370.97,180.07C370.5,179.64 370.27,179.1 370.27,178.44C370.27,178.05 370.36,177.69 370.54,177.37C370.72,177.05 370.95,176.79 371.24,176.6C371.53,176.4 371.85,176.26 372.21,176.16C372.47,176.09 372.87,176.02 373.41,175.96C374.5,175.83 375.3,175.67 375.81,175.5C375.81,175.32 375.82,175.2 375.82,175.15C375.82,174.6 375.69,174.21 375.44,173.99C375.1,173.69 374.58,173.53 373.91,173.53C373.28,173.53 372.81,173.64 372.51,173.86C372.21,174.08 371.98,174.48 371.84,175.04L370.52,174.86C370.64,174.3 370.84,173.84 371.11,173.49C371.38,173.14 371.78,172.88 372.3,172.69C372.82,172.5 373.42,172.41 374.1,172.41C374.78,172.41 375.33,172.49 375.75,172.65C376.17,172.81 376.49,173.01 376.69,173.25C376.89,173.49 377.03,173.8 377.11,174.17C377.15,174.4 377.18,174.81 377.18,175.41L377.18,177.21C377.18,178.46 377.21,179.25 377.27,179.59C377.33,179.92 377.44,180.24 377.61,180.55L376.2,180.55C376.04,180.25 375.95,179.92 375.91,179.55ZM375.79,176.54C375.3,176.74 374.57,176.91 373.59,177.05C373.04,177.13 372.64,177.22 372.41,177.32C372.18,177.42 372,177.57 371.88,177.76C371.76,177.95 371.69,178.16 371.69,178.4C371.69,178.76 371.83,179.06 372.1,179.3C372.37,179.54 372.77,179.66 373.29,179.66C373.81,179.66 374.27,179.55 374.67,179.32C375.07,179.09 375.37,178.78 375.56,178.39C375.7,178.09 375.78,177.64 375.78,177.04L375.78,176.54L375.79,176.54Z" style="fill:white;fill-rule:nonzero;"/>
        <path d="M382.19,179.32L382.38,180.51C382,180.59 381.66,180.63 381.36,180.63C380.87,180.63 380.49,180.55 380.22,180.4C379.95,180.24 379.76,180.04 379.65,179.79C379.54,179.54 379.49,179.01 379.49,178.2L379.49,173.63L378.5,173.63L378.5,172.58L379.49,172.58L379.49,170.61L380.83,169.8L380.83,172.58L382.19,172.58L382.19,173.63L380.83,173.63L380.83,178.28C380.83,178.66 380.85,178.91 380.9,179.02C380.95,179.13 381.02,179.22 381.13,179.28C381.24,179.34 381.39,179.38 381.59,179.38C381.74,179.38 381.94,179.36 382.19,179.32Z" style="fill:white;fill-rule:nonzero;"/>
        <path d="M383.51,171.1L383.51,169.55L384.86,169.55L384.86,171.1L383.51,171.1ZM383.51,180.53L383.51,172.58L384.86,172.58L384.86,180.53L383.51,180.53Z" style="fill:white;fill-rule:nonzero;"/>
        <path d="M386.41,176.55C386.41,175.08 386.82,173.99 387.64,173.28C388.32,172.69 389.16,172.4 390.14,172.4C391.23,172.4 392.13,172.76 392.82,173.47C393.51,174.19 393.86,175.18 393.86,176.44C393.86,177.46 393.71,178.27 393.4,178.85C393.09,179.44 392.65,179.89 392.06,180.22C391.47,180.54 390.83,180.71 390.14,180.71C389.03,180.71 388.13,180.35 387.44,179.64C386.75,178.92 386.41,177.9 386.41,176.55ZM387.79,176.55C387.79,177.57 388.01,178.33 388.46,178.84C388.9,179.35 389.46,179.6 390.14,179.6C390.81,179.6 391.37,179.35 391.81,178.84C392.25,178.33 392.48,177.55 392.48,176.51C392.48,175.53 392.26,174.78 391.81,174.27C391.36,173.76 390.81,173.51 390.14,173.51C389.47,173.51 388.91,173.76 388.46,174.27C388.01,174.77 387.79,175.53 387.79,176.55Z" style="fill:white;fill-rule:nonzero;"/>
        <path d="M395.44,180.54L395.44,172.58L396.65,172.58L396.65,173.71C397.23,172.84 398.08,172.4 399.18,172.4C399.66,172.4 400.1,172.49 400.5,172.66C400.9,172.83 401.2,173.06 401.4,173.34C401.6,173.62 401.74,173.95 401.82,174.34C401.87,174.59 401.9,175.03 401.9,175.65L401.9,180.54L400.55,180.54L400.55,175.7C400.55,175.15 400.5,174.74 400.39,174.47C400.29,174.2 400.1,173.98 399.83,173.82C399.56,173.66 399.25,173.58 398.89,173.58C398.32,173.58 397.82,173.76 397.4,174.13C396.98,174.5 396.78,175.18 396.78,176.2L396.78,180.54L395.44,180.54Z" style="fill:white;fill-rule:nonzero;"/>
        <path d="M409.15,179.55C408.65,179.97 408.17,180.27 407.71,180.45C407.25,180.62 406.75,180.71 406.22,180.71C405.35,180.71 404.68,180.5 404.21,180.07C403.74,179.64 403.51,179.1 403.51,178.44C403.51,178.05 403.6,177.69 403.78,177.37C403.96,177.05 404.19,176.79 404.48,176.6C404.77,176.4 405.09,176.26 405.45,176.16C405.71,176.09 406.11,176.02 406.65,175.96C407.74,175.83 408.54,175.67 409.05,175.5C409.05,175.32 409.06,175.2 409.06,175.15C409.06,174.6 408.93,174.21 408.68,173.99C408.34,173.69 407.82,173.53 407.15,173.53C406.52,173.53 406.05,173.64 405.75,173.86C405.45,174.08 405.22,174.48 405.08,175.04L403.76,174.86C403.88,174.3 404.08,173.84 404.35,173.49C404.63,173.14 405.02,172.88 405.54,172.69C406.06,172.5 406.66,172.41 407.34,172.41C408.02,172.41 408.57,172.49 409,172.65C409.42,172.81 409.74,173.01 409.94,173.25C410.14,173.49 410.28,173.8 410.36,174.17C410.4,174.4 410.43,174.81 410.43,175.41L410.43,177.21C410.43,178.46 410.46,179.25 410.52,179.59C410.58,179.92 410.69,180.24 410.86,180.55L409.45,180.55C409.28,180.25 409.19,179.92 409.15,179.55ZM409.04,176.54C408.55,176.74 407.82,176.91 406.84,177.05C406.29,177.13 405.89,177.22 405.67,177.32C405.44,177.42 405.26,177.57 405.14,177.76C405.02,177.95 404.95,178.16 404.95,178.4C404.95,178.76 405.09,179.06 405.36,179.3C405.63,179.54 406.03,179.66 406.55,179.66C407.07,179.66 407.53,179.55 407.93,179.32C408.33,179.09 408.63,178.78 408.82,178.39C408.96,178.09 409.04,177.64 409.04,177.04L409.04,176.54Z" style="fill:white;fill-rule:nonzero;"/>
        <rect x="412.46" y="169.56" width="1.35" height="10.97" style="fill:white;fill-rule:nonzero;"/>
        <path d="M418.28,180.53L422.49,169.56L424.06,169.56L428.55,180.53L426.9,180.53L425.62,177.21L421.03,177.21L419.82,180.53L418.28,180.53ZM421.44,176.02L425.16,176.02L424.01,172.98C423.66,172.06 423.4,171.3 423.23,170.7C423.09,171.4 422.89,172.1 422.64,172.8L421.44,176.02Z" style="fill:white;fill-rule:nonzero;"/>
        <path d="M428.99,178.15L430.32,177.94C430.4,178.48 430.6,178.88 430.94,179.17C431.28,179.46 431.76,179.6 432.37,179.6C432.99,179.6 433.45,179.48 433.75,179.22C434.05,178.97 434.2,178.67 434.2,178.33C434.2,178.03 434.07,177.79 433.8,177.61C433.62,177.49 433.16,177.34 432.42,177.15C431.43,176.9 430.75,176.69 430.37,176.5C429.99,176.32 429.7,176.07 429.5,175.74C429.3,175.42 429.2,175.06 429.2,174.67C429.2,174.32 429.28,173.99 429.44,173.69C429.6,173.39 429.82,173.14 430.1,172.94C430.31,172.79 430.6,172.65 430.96,172.55C431.32,172.44 431.71,172.39 432.12,172.39C432.74,172.39 433.29,172.48 433.76,172.66C434.23,172.84 434.58,173.08 434.81,173.39C435.03,173.7 435.19,174.11 435.27,174.62L433.95,174.8C433.89,174.39 433.72,174.07 433.43,173.84C433.14,173.61 432.74,173.5 432.21,173.5C431.59,173.5 431.15,173.6 430.88,173.81C430.62,174.02 430.48,174.25 430.48,174.53C430.48,174.7 430.53,174.86 430.65,175C430.76,175.14 430.93,175.27 431.17,175.36C431.3,175.41 431.7,175.52 432.36,175.7C433.31,175.96 433.98,176.16 434.36,176.32C434.74,176.48 435.03,176.72 435.25,177.03C435.46,177.34 435.57,177.72 435.57,178.18C435.57,178.63 435.44,179.05 435.18,179.45C434.92,179.85 434.54,180.15 434.05,180.37C433.56,180.59 433,180.7 432.37,180.7C431.34,180.7 430.55,180.49 430.01,180.06C429.49,179.63 429.15,179 428.99,178.15Z" style="fill:white;fill-rule:nonzero;"/>
        <path d="M436.66,178.15L437.99,177.94C438.07,178.48 438.27,178.88 438.61,179.17C438.95,179.46 439.43,179.6 440.04,179.6C440.66,179.6 441.12,179.48 441.42,179.22C441.72,178.97 441.87,178.67 441.87,178.33C441.87,178.03 441.74,177.79 441.47,177.61C441.28,177.49 440.83,177.34 440.09,177.15C439.1,176.9 438.42,176.69 438.04,176.5C437.66,176.32 437.37,176.07 437.17,175.74C436.97,175.42 436.87,175.06 436.87,174.67C436.87,174.32 436.95,173.99 437.11,173.69C437.27,173.39 437.49,173.14 437.77,172.94C437.98,172.79 438.27,172.65 438.63,172.55C438.99,172.44 439.38,172.39 439.79,172.39C440.41,172.39 440.96,172.48 441.43,172.66C441.9,172.84 442.25,173.08 442.47,173.39C442.69,173.7 442.85,174.11 442.93,174.62L441.61,174.8C441.55,174.39 441.38,174.07 441.09,173.84C440.8,173.61 440.4,173.5 439.87,173.5C439.25,173.5 438.81,173.6 438.54,173.81C438.28,174.02 438.14,174.25 438.14,174.53C438.14,174.7 438.19,174.86 438.3,175C438.41,175.14 438.58,175.27 438.82,175.36C438.95,175.41 439.35,175.52 440.01,175.7C440.96,175.96 441.63,176.16 442.01,176.32C442.39,176.48 442.68,176.72 442.9,177.03C443.11,177.34 443.22,177.72 443.22,178.18C443.22,178.63 443.09,179.05 442.83,179.45C442.57,179.85 442.19,180.15 441.7,180.37C441.21,180.59 440.65,180.7 440.02,180.7C438.99,180.7 438.2,180.49 437.66,180.06C437.16,179.63 436.81,179 436.66,178.15Z" style="fill:white;fill-rule:nonzero;"/>
        <path d="M444.36,176.55C444.36,175.08 444.77,173.99 445.59,173.28C446.27,172.69 447.11,172.4 448.09,172.4C449.18,172.4 450.08,172.76 450.77,173.47C451.46,174.19 451.81,175.18 451.81,176.44C451.81,177.46 451.66,178.27 451.35,178.85C451.04,179.44 450.6,179.89 450.01,180.22C449.42,180.54 448.78,180.71 448.09,180.71C446.98,180.71 446.08,180.35 445.39,179.64C444.71,178.92 444.36,177.9 444.36,176.55ZM445.75,176.55C445.75,177.57 445.97,178.33 446.42,178.84C446.86,179.35 447.42,179.6 448.1,179.6C448.77,179.6 449.32,179.35 449.77,178.84C450.21,178.33 450.44,177.55 450.44,176.51C450.44,175.53 450.22,174.78 449.77,174.27C449.32,173.76 448.77,173.51 448.1,173.51C447.43,173.51 446.87,173.76 446.42,174.27C445.97,174.77 445.75,175.53 445.75,176.55Z" style="fill:white;fill-rule:nonzero;"/>
        <path d="M458.58,177.62L459.91,177.79C459.77,178.7 459.39,179.42 458.8,179.93C458.2,180.45 457.47,180.71 456.6,180.71C455.51,180.71 454.64,180.35 453.98,179.64C453.32,178.93 452.99,177.91 452.99,176.58C452.99,175.72 453.13,174.97 453.42,174.33C453.7,173.69 454.14,173.2 454.72,172.88C455.3,172.56 455.93,172.4 456.62,172.4C457.48,172.4 458.19,172.62 458.74,173.06C459.29,173.5 459.64,174.12 459.8,174.92L458.49,175.12C458.37,174.58 458.14,174.18 457.83,173.91C457.51,173.64 457.13,173.51 456.68,173.51C456,173.51 455.45,173.75 455.03,174.24C454.61,174.73 454.39,175.5 454.39,176.55C454.39,177.62 454.6,178.39 455,178.88C455.41,179.36 455.94,179.6 456.6,179.6C457.13,179.6 457.57,179.44 457.93,179.11C458.26,178.79 458.48,178.29 458.58,177.62Z" style="fill:white;fill-rule:nonzero;"/>
        <path d="M461.07,171.1L461.07,169.55L462.42,169.55L462.42,171.1L461.07,171.1ZM461.07,180.53L461.07,172.58L462.42,172.58L462.42,180.53L461.07,180.53Z" style="fill:white;fill-rule:nonzero;"/>
        <path d="M469.65,179.55C469.15,179.97 468.67,180.27 468.21,180.45C467.75,180.62 467.25,180.71 466.72,180.71C465.85,180.71 465.18,180.5 464.71,180.07C464.24,179.64 464.01,179.1 464.01,178.44C464.01,178.05 464.1,177.69 464.28,177.37C464.46,177.05 464.69,176.79 464.98,176.6C465.27,176.4 465.59,176.26 465.95,176.16C466.21,176.09 466.61,176.02 467.15,175.96C468.24,175.83 469.04,175.67 469.55,175.5C469.55,175.32 469.56,175.2 469.56,175.15C469.56,174.6 469.43,174.21 469.18,173.99C468.84,173.69 468.32,173.53 467.64,173.53C467.01,173.53 466.54,173.64 466.24,173.86C465.94,174.08 465.71,174.48 465.57,175.04L464.25,174.86C464.37,174.3 464.57,173.84 464.84,173.49C465.11,173.14 465.51,172.88 466.03,172.69C466.55,172.5 467.15,172.41 467.83,172.41C468.51,172.41 469.06,172.49 469.48,172.65C469.9,172.81 470.22,173.01 470.42,173.25C470.62,173.49 470.76,173.8 470.84,174.17C470.88,174.4 470.91,174.81 470.91,175.41L470.91,177.21C470.91,178.46 470.94,179.25 471,179.59C471.06,179.92 471.17,180.24 471.34,180.55L469.93,180.55C469.78,180.25 469.69,179.92 469.65,179.55ZM469.54,176.54C469.05,176.74 468.32,176.91 467.34,177.05C466.79,177.13 466.39,177.22 466.17,177.32C465.94,177.42 465.76,177.57 465.64,177.76C465.52,177.95 465.45,178.16 465.45,178.4C465.45,178.76 465.59,179.06 465.86,179.3C466.13,179.54 466.53,179.66 467.05,179.66C467.57,179.66 468.03,179.55 468.44,179.32C468.84,179.09 469.14,178.78 469.33,178.39C469.47,178.09 469.55,177.64 469.55,177.04L469.55,176.54L469.54,176.54Z" style="fill:white;fill-rule:nonzero;"/>
        <path d="M475.93,179.32L476.13,180.51C475.75,180.59 475.41,180.63 475.11,180.63C474.62,180.63 474.24,180.55 473.97,180.4C473.7,180.24 473.51,180.04 473.4,179.79C473.29,179.54 473.24,179.01 473.24,178.2L473.24,173.63L472.25,173.63L472.25,172.58L473.24,172.58L473.24,170.61L474.58,169.8L474.58,172.58L475.93,172.58L475.93,173.63L474.58,173.63L474.58,178.28C474.58,178.66 474.6,178.91 474.65,179.02C474.7,179.13 474.77,179.22 474.88,179.28C474.99,179.34 475.14,179.38 475.34,179.38C475.49,179.38 475.69,179.36 475.93,179.32Z" style="fill:white;fill-rule:nonzero;"/>
        <path d="M477.26,171.1L477.26,169.55L478.61,169.55L478.61,171.1L477.26,171.1ZM477.26,180.53L477.26,172.58L478.61,172.58L478.61,180.53L477.26,180.53Z" style="fill:white;fill-rule:nonzero;"/>
        <path d="M480.15,176.55C480.15,175.08 480.56,173.99 481.38,173.28C482.06,172.69 482.9,172.4 483.88,172.4C484.97,172.4 485.87,172.76 486.56,173.47C487.25,174.19 487.6,175.18 487.6,176.44C487.6,177.46 487.45,178.27 487.14,178.85C486.83,179.44 486.39,179.89 485.8,180.22C485.21,180.54 484.57,180.71 483.88,180.71C482.77,180.71 481.87,180.35 481.18,179.64C480.5,178.92 480.15,177.9 480.15,176.55ZM481.54,176.55C481.54,177.57 481.76,178.33 482.21,178.84C482.65,179.35 483.21,179.6 483.89,179.6C484.56,179.6 485.11,179.35 485.56,178.84C486,178.33 486.23,177.55 486.23,176.51C486.23,175.53 486.01,174.78 485.56,174.27C485.11,173.76 484.56,173.51 483.89,173.51C483.22,173.51 482.66,173.76 482.21,174.27C481.76,174.77 481.54,175.53 481.54,176.55Z" style="fill:white;fill-rule:nonzero;"/>
        <path d="M489.18,180.54L489.18,172.58L490.39,172.58L490.39,173.71C490.97,172.84 491.82,172.4 492.92,172.4C493.4,172.4 493.84,172.49 494.24,172.66C494.64,172.83 494.94,173.06 495.14,173.34C495.34,173.62 495.48,173.95 495.56,174.34C495.61,174.59 495.63,175.03 495.63,175.65L495.63,180.54L494.28,180.54L494.28,175.7C494.28,175.15 494.23,174.74 494.12,174.47C494.02,174.2 493.83,173.98 493.56,173.82C493.29,173.66 492.98,173.58 492.62,173.58C492.05,173.58 491.55,173.76 491.13,174.13C490.71,174.5 490.51,175.18 490.51,176.2L490.51,180.54L489.18,180.54Z" style="fill:white;fill-rule:nonzero;"/>
        <path d="M331.84,196.59L331.84,189.69L330.65,189.69L330.65,188.64L331.84,188.64L331.84,187.79C331.84,187.25 331.89,186.86 331.98,186.6C332.11,186.25 332.34,185.97 332.67,185.75C333,185.53 333.45,185.43 334.04,185.43C334.42,185.43 334.84,185.47 335.3,185.56L335.1,186.73C334.82,186.68 334.56,186.66 334.31,186.66C333.9,186.66 333.61,186.75 333.44,186.92C333.27,187.1 333.19,187.42 333.19,187.9L333.19,188.63L334.74,188.63L334.74,189.68L333.19,189.68L333.19,196.58L331.84,196.58L331.84,196.59Z" style="fill:white;fill-rule:nonzero;"/>
        <path d="M335.27,192.61C335.27,191.14 335.68,190.05 336.5,189.34C337.18,188.75 338.02,188.46 339,188.46C340.09,188.46 340.99,188.82 341.68,189.53C342.37,190.25 342.72,191.24 342.72,192.5C342.72,193.52 342.57,194.33 342.26,194.91C341.95,195.5 341.51,195.95 340.92,196.28C340.33,196.6 339.69,196.77 339,196.77C337.89,196.77 336.99,196.41 336.3,195.7C335.61,194.98 335.27,193.96 335.27,192.61ZM336.66,192.61C336.66,193.63 336.88,194.39 337.33,194.9C337.77,195.41 338.33,195.66 339.01,195.66C339.68,195.66 340.24,195.41 340.68,194.9C341.12,194.39 341.35,193.61 341.35,192.57C341.35,191.59 341.13,190.84 340.68,190.34C340.23,189.83 339.68,189.58 339.01,189.58C338.34,189.58 337.78,189.83 337.33,190.34C336.88,190.83 336.66,191.6 336.66,192.61Z" style="fill:white;fill-rule:nonzero;"/>
        <path d="M344.28,196.59L344.28,188.64L345.49,188.64L345.49,189.85C345.8,189.29 346.08,188.91 346.35,188.73C346.61,188.55 346.9,188.46 347.21,188.46C347.66,188.46 348.13,188.6 348.59,188.89L348.13,190.14C347.8,189.95 347.47,189.85 347.14,189.85C346.85,189.85 346.58,189.94 346.35,190.12C346.12,190.3 345.95,190.54 345.85,190.86C345.7,191.34 345.63,191.86 345.63,192.43L345.63,196.59L344.28,196.59Z" style="fill:white;fill-rule:nonzero;"/>
        <path d="M358.97,192.31L358.97,191L363.62,190.99L363.62,195.06C362.91,195.63 362.17,196.06 361.41,196.35C360.65,196.64 359.87,196.78 359.07,196.78C357.99,196.78 357.01,196.55 356.13,196.09C355.25,195.63 354.58,194.96 354.13,194.09C353.68,193.22 353.46,192.24 353.46,191.16C353.46,190.09 353.68,189.09 354.13,188.17C354.58,187.25 355.22,186.56 356.06,186.11C356.9,185.66 357.86,185.44 358.96,185.44C359.75,185.44 360.47,185.57 361.11,185.82C361.75,186.08 362.25,186.44 362.62,186.89C362.98,187.35 363.26,187.95 363.45,188.69L362.14,189.05C361.98,188.49 361.77,188.05 361.53,187.73C361.29,187.41 360.94,187.16 360.48,186.96C360.03,186.77 359.52,186.67 358.97,186.67C358.31,186.67 357.73,186.77 357.25,186.97C356.77,187.17 356.38,187.44 356.08,187.77C355.78,188.1 355.55,188.46 355.39,188.86C355.11,189.54 354.97,190.27 354.97,191.07C354.97,192.05 355.14,192.87 355.48,193.53C355.82,194.19 356.31,194.68 356.95,195C357.59,195.32 358.28,195.48 359,195.48C359.63,195.48 360.24,195.36 360.84,195.12C361.44,194.88 361.89,194.62 362.2,194.35L362.2,192.31L358.97,192.31Z" style="fill:white;fill-rule:nonzero;"/>
        <path d="M371.03,194.03L372.42,194.2C372.2,195.01 371.79,195.64 371.2,196.09C370.61,196.54 369.85,196.76 368.92,196.76C367.76,196.76 366.84,196.4 366.15,195.69C365.47,194.98 365.13,193.97 365.13,192.68C365.13,191.34 365.47,190.3 366.16,189.56C366.85,188.82 367.74,188.45 368.84,188.45C369.9,188.45 370.77,188.81 371.44,189.54C372.11,190.26 372.45,191.28 372.45,192.59C372.45,192.67 372.45,192.79 372.44,192.95L366.51,192.95C366.56,193.83 366.81,194.49 367.25,194.96C367.69,195.42 368.25,195.66 368.91,195.66C369.4,195.66 369.83,195.53 370.18,195.27C370.55,195.01 370.83,194.6 371.03,194.03ZM366.61,191.85L371.05,191.85C370.99,191.18 370.82,190.68 370.54,190.35C370.11,189.83 369.55,189.57 368.87,189.57C368.25,189.57 367.73,189.78 367.31,190.19C366.89,190.6 366.65,191.16 366.61,191.85Z" style="fill:white;fill-rule:nonzero;"/>
        <path d="M373.61,192.61C373.61,191.14 374.02,190.05 374.84,189.34C375.52,188.75 376.36,188.46 377.34,188.46C378.43,188.46 379.33,188.82 380.02,189.53C380.71,190.25 381.06,191.24 381.06,192.5C381.06,193.52 380.91,194.33 380.6,194.91C380.29,195.5 379.85,195.95 379.26,196.28C378.67,196.6 378.03,196.77 377.34,196.77C376.23,196.77 375.33,196.41 374.64,195.7C373.96,194.98 373.61,193.96 373.61,192.61ZM375,192.61C375,193.63 375.22,194.39 375.67,194.9C376.11,195.41 376.67,195.66 377.35,195.66C378.02,195.66 378.58,195.41 379.02,194.9C379.46,194.39 379.69,193.61 379.69,192.57C379.69,191.59 379.47,190.84 379.02,190.34C378.57,189.83 378.02,189.58 377.35,189.58C376.68,189.58 376.12,189.83 375.67,190.34C375.22,190.83 375,191.6 375,192.61Z" style="fill:white;fill-rule:nonzero;"/>
        <path d="M382.1,194.22L383.43,194.01C383.5,194.54 383.71,194.95 384.05,195.24C384.39,195.52 384.87,195.67 385.48,195.67C386.1,195.67 386.56,195.54 386.86,195.29C387.16,195.04 387.31,194.74 387.31,194.4C387.31,194.1 387.18,193.86 386.91,193.68C386.73,193.56 386.27,193.41 385.53,193.22C384.54,192.97 383.86,192.75 383.48,192.57C383.1,192.39 382.81,192.14 382.61,191.81C382.41,191.49 382.31,191.13 382.31,190.74C382.31,190.38 382.39,190.06 382.55,189.76C382.71,189.46 382.93,189.21 383.21,189.01C383.42,188.86 383.71,188.72 384.07,188.62C384.43,188.51 384.82,188.46 385.23,188.46C385.85,188.46 386.4,188.55 386.87,188.73C387.34,188.91 387.69,189.15 387.91,189.46C388.13,189.77 388.29,190.18 388.37,190.69L387.05,190.87C386.99,190.46 386.82,190.14 386.53,189.91C386.24,189.68 385.84,189.57 385.31,189.57C384.69,189.57 384.25,189.67 383.98,189.88C383.72,190.09 383.58,190.33 383.58,190.6C383.58,190.78 383.64,190.93 383.75,191.07C383.86,191.21 384.03,191.33 384.27,191.43C384.4,191.48 384.8,191.59 385.46,191.77C386.41,192.02 387.08,192.23 387.46,192.39C387.84,192.55 388.13,192.79 388.35,193.1C388.56,193.41 388.67,193.79 388.67,194.25C388.67,194.7 388.54,195.12 388.28,195.52C388.02,195.92 387.64,196.22 387.15,196.44C386.66,196.66 386.1,196.76 385.47,196.76C384.44,196.76 383.65,196.55 383.11,196.12C382.6,195.7 382.25,195.06 382.1,194.22Z" style="fill:white;fill-rule:nonzero;"/>
        <path d="M395.5,193.68L396.83,193.85C396.69,194.76 396.31,195.48 395.72,196C395.12,196.52 394.39,196.77 393.52,196.77C392.43,196.77 391.56,196.41 390.9,195.7C390.24,194.99 389.91,193.97 389.91,192.64C389.91,191.78 390.05,191.03 390.34,190.39C390.62,189.75 391.06,189.26 391.64,188.94C392.22,188.62 392.85,188.46 393.54,188.46C394.4,188.46 395.11,188.68 395.66,189.11C396.21,189.55 396.56,190.17 396.72,190.97L395.41,191.17C395.29,190.64 395.06,190.23 394.75,189.96C394.43,189.69 394.05,189.56 393.6,189.56C392.92,189.56 392.37,189.8 391.95,190.29C391.53,190.78 391.31,191.55 391.31,192.6C391.31,193.67 391.51,194.44 391.92,194.93C392.33,195.41 392.86,195.66 393.52,195.66C394.05,195.66 394.49,195.5 394.84,195.17C395.18,194.85 395.4,194.35 395.5,193.68Z" style="fill:white;fill-rule:nonzero;"/>
        <path d="M397.98,187.16L397.98,185.61L399.33,185.61L399.33,187.16L397.98,187.16ZM397.98,196.59L397.98,188.64L399.33,188.64L399.33,196.59L397.98,196.59Z" style="fill:white;fill-rule:nonzero;"/>
        <path d="M406.82,194.03L408.21,194.2C407.99,195.01 407.58,195.64 406.99,196.09C406.4,196.54 405.64,196.76 404.71,196.76C403.55,196.76 402.63,196.4 401.94,195.69C401.26,194.98 400.92,193.97 400.92,192.68C400.92,191.34 401.26,190.3 401.95,189.56C402.64,188.82 403.53,188.45 404.63,188.45C405.69,188.45 406.56,188.81 407.24,189.54C407.91,190.26 408.25,191.28 408.25,192.59C408.25,192.67 408.25,192.79 408.24,192.95L402.31,192.95C402.36,193.83 402.61,194.49 403.05,194.96C403.49,195.42 404.05,195.66 404.71,195.66C405.2,195.66 405.63,195.53 405.97,195.27C406.34,195.01 406.62,194.6 406.82,194.03ZM402.4,191.85L406.84,191.85C406.78,191.18 406.61,190.68 406.33,190.35C405.9,189.83 405.34,189.57 404.66,189.57C404.04,189.57 403.52,189.78 403.1,190.19C402.68,190.6 402.44,191.16 402.4,191.85Z" style="fill:white;fill-rule:nonzero;"/>
        <path d="M409.91,196.6L409.91,188.64L411.12,188.64L411.12,189.77C411.7,188.89 412.55,188.46 413.65,188.46C414.13,188.46 414.57,188.55 414.97,188.72C415.37,188.89 415.67,189.12 415.87,189.4C416.07,189.68 416.21,190.01 416.29,190.4C416.34,190.65 416.36,191.09 416.36,191.71L416.36,196.6L415.01,196.6L415.01,191.76C415.01,191.21 414.96,190.8 414.85,190.53C414.74,190.26 414.56,190.04 414.29,189.88C414.02,189.72 413.71,189.64 413.35,189.64C412.78,189.64 412.28,189.82 411.86,190.19C411.44,190.55 411.24,191.24 411.24,192.26L411.24,196.6L409.91,196.6Z" style="fill:white;fill-rule:nonzero;"/>
        <path d="M423.62,193.68L424.95,193.85C424.8,194.76 424.43,195.48 423.84,196C423.24,196.52 422.51,196.77 421.64,196.77C420.55,196.77 419.68,196.41 419.02,195.7C418.36,194.99 418.03,193.97 418.03,192.64C418.03,191.78 418.17,191.03 418.46,190.39C418.74,189.75 419.18,189.26 419.76,188.94C420.34,188.62 420.97,188.46 421.66,188.46C422.52,188.46 423.23,188.68 423.78,189.11C424.33,189.55 424.68,190.17 424.84,190.97L423.53,191.17C423.41,190.64 423.18,190.23 422.87,189.96C422.55,189.69 422.17,189.56 421.72,189.56C421.04,189.56 420.49,189.8 420.07,190.29C419.65,190.78 419.43,191.55 419.43,192.6C419.43,193.67 419.63,194.44 420.04,194.93C420.45,195.41 420.98,195.66 421.64,195.66C422.17,195.66 422.61,195.5 422.96,195.17C423.3,194.85 423.53,194.35 423.62,193.68Z" style="fill:white;fill-rule:nonzero;"/>
        <path d="M431.54,194.03L432.93,194.2C432.71,195.01 432.3,195.64 431.71,196.09C431.12,196.54 430.36,196.76 429.43,196.76C428.27,196.76 427.35,196.4 426.66,195.69C425.98,194.98 425.64,193.97 425.64,192.68C425.64,191.34 425.98,190.3 426.67,189.56C427.36,188.82 428.25,188.45 429.35,188.45C430.41,188.45 431.28,188.81 431.96,189.54C432.63,190.26 432.97,191.28 432.97,192.59C432.97,192.67 432.97,192.79 432.96,192.95L427.03,192.95C427.08,193.83 427.33,194.49 427.77,194.96C428.22,195.42 428.77,195.66 429.43,195.66C429.92,195.66 430.35,195.53 430.7,195.27C431.06,195.01 431.34,194.6 431.54,194.03ZM427.12,191.85L431.56,191.85C431.5,191.18 431.33,190.68 431.05,190.35C430.62,189.83 430.06,189.57 429.38,189.57C428.76,189.57 428.24,189.78 427.82,190.19C427.39,190.6 427.16,191.16 427.12,191.85Z" style="fill:white;fill-rule:nonzero;"/>
        <path d="M439.06,196.62L439.06,185.62L442.84,185.62C443.69,185.62 444.34,185.67 444.79,185.78C445.42,185.92 445.96,186.19 446.4,186.57C446.98,187.06 447.41,187.69 447.7,188.45C447.99,189.21 448.13,190.08 448.13,191.06C448.13,191.89 448.03,192.63 447.84,193.28C447.65,193.92 447.4,194.46 447.09,194.88C446.79,195.3 446.45,195.63 446.09,195.88C445.73,196.12 445.29,196.31 444.78,196.43C444.27,196.55 443.68,196.62 443.02,196.62L439.06,196.62ZM440.5,195.29L442.85,195.29C443.57,195.29 444.14,195.22 444.55,195.09C444.96,194.96 445.29,194.77 445.54,194.52C445.88,194.18 446.15,193.71 446.34,193.13C446.53,192.55 446.63,191.84 446.63,191.02C446.63,189.87 446.44,188.99 446.06,188.37C445.68,187.75 445.23,187.34 444.69,187.13C444.3,186.98 443.67,186.91 442.81,186.91L440.5,186.91L440.5,195.29Z" style="fill:white;fill-rule:nonzero;"/>
        <path d="M449.96,187.16L449.96,185.61L451.31,185.61L451.31,187.16L449.96,187.16ZM449.96,196.59L449.96,188.64L451.31,188.64L451.31,196.59L449.96,196.59Z" style="fill:white;fill-rule:nonzero;"/>
        <path d="M455.57,196.59L452.55,188.64L453.97,188.64L455.68,193.4C455.87,193.92 456.03,194.45 456.19,195C456.31,194.58 456.48,194.08 456.69,193.49L458.46,188.64L459.85,188.64L456.84,196.59L455.57,196.59Z" style="fill:white;fill-rule:nonzero;"/>
        <path d="M466.47,194.03L467.86,194.2C467.64,195.01 467.23,195.64 466.64,196.09C466.05,196.54 465.29,196.76 464.36,196.76C463.2,196.76 462.28,196.4 461.59,195.69C460.91,194.98 460.57,193.97 460.57,192.68C460.57,191.34 460.91,190.3 461.6,189.56C462.29,188.82 463.18,188.45 464.28,188.45C465.34,188.45 466.21,188.81 466.89,189.54C467.56,190.26 467.9,191.28 467.9,192.59C467.9,192.67 467.9,192.79 467.89,192.95L461.96,192.95C462.01,193.83 462.26,194.49 462.7,194.96C463.14,195.42 463.7,195.66 464.36,195.66C464.85,195.66 465.28,195.53 465.63,195.27C465.99,195.01 466.26,194.6 466.47,194.03ZM462.04,191.85L466.48,191.85C466.42,191.18 466.25,190.68 465.97,190.35C465.54,189.83 464.98,189.57 464.3,189.57C463.68,189.57 463.16,189.78 462.74,190.19C462.32,190.6 462.09,191.16 462.04,191.85Z" style="fill:white;fill-rule:nonzero;"/>
        <path d="M469.54,196.59L469.54,188.64L470.75,188.64L470.75,189.85C471.06,189.29 471.35,188.91 471.61,188.73C471.87,188.55 472.16,188.46 472.47,188.46C472.92,188.46 473.39,188.6 473.86,188.89L473.4,190.14C473.07,189.95 472.74,189.85 472.41,189.85C472.12,189.85 471.85,189.94 471.62,190.12C471.39,190.3 471.22,190.54 471.12,190.86C470.97,191.34 470.9,191.86 470.9,192.43L470.9,196.59L469.54,196.59Z" style="fill:white;fill-rule:nonzero;"/>
        <path d="M474.12,194.22L475.45,194.01C475.53,194.54 475.73,194.95 476.07,195.24C476.41,195.52 476.89,195.67 477.5,195.67C478.12,195.67 478.58,195.54 478.88,195.29C479.18,195.04 479.33,194.74 479.33,194.4C479.33,194.1 479.2,193.86 478.93,193.68C478.74,193.56 478.29,193.41 477.55,193.22C476.56,192.97 475.88,192.75 475.5,192.57C475.12,192.39 474.83,192.14 474.63,191.81C474.43,191.49 474.33,191.13 474.33,190.74C474.33,190.38 474.41,190.06 474.57,189.76C474.73,189.46 474.95,189.21 475.23,189.01C475.44,188.86 475.73,188.72 476.09,188.62C476.45,188.51 476.84,188.46 477.25,188.46C477.87,188.46 478.42,188.55 478.89,188.73C479.36,188.91 479.71,189.15 479.93,189.46C480.15,189.77 480.31,190.18 480.39,190.69L479.07,190.87C479.01,190.46 478.84,190.14 478.55,189.91C478.26,189.68 477.86,189.57 477.33,189.57C476.71,189.57 476.27,189.67 476,189.88C475.74,190.09 475.6,190.33 475.6,190.6C475.6,190.78 475.65,190.93 475.76,191.07C475.87,191.21 476.04,191.33 476.28,191.43C476.41,191.48 476.81,191.59 477.47,191.77C478.42,192.02 479.09,192.23 479.47,192.39C479.85,192.55 480.14,192.79 480.36,193.1C480.57,193.41 480.68,193.79 480.68,194.25C480.68,194.7 480.55,195.12 480.29,195.52C480.03,195.92 479.65,196.22 479.16,196.44C478.67,196.66 478.11,196.76 477.48,196.76C476.45,196.76 475.66,196.55 475.12,196.12C474.61,195.7 474.27,195.06 474.12,194.22Z" style="fill:white;fill-rule:nonzero;"/>
        <path d="M482.33,187.16L482.33,185.61L483.68,185.61L483.68,187.16L482.33,187.16ZM482.33,196.59L482.33,188.64L483.68,188.64L483.68,196.59L482.33,196.59Z" style="fill:white;fill-rule:nonzero;"/>
        <path d="M488.67,195.38L488.87,196.57C488.49,196.65 488.15,196.69 487.85,196.69C487.36,196.69 486.98,196.61 486.71,196.46C486.44,196.31 486.25,196.1 486.14,195.85C486.03,195.6 485.98,195.07 485.98,194.26L485.98,189.69L484.99,189.69L484.99,188.64L485.98,188.64L485.98,186.67L487.32,185.86L487.32,188.64L488.67,188.64L488.67,189.69L487.32,189.69L487.32,194.34C487.32,194.72 487.34,194.97 487.39,195.08C487.44,195.19 487.51,195.28 487.62,195.34C487.73,195.4 487.88,195.44 488.08,195.44C488.23,195.44 488.43,195.42 488.67,195.38Z" style="fill:white;fill-rule:nonzero;"/>
        <path d="M489.93,199.65L489.78,198.38C490.07,198.46 490.33,198.5 490.55,198.5C490.85,198.5 491.09,198.45 491.27,198.35C491.45,198.25 491.6,198.11 491.71,197.93C491.79,197.8 491.93,197.46 492.12,196.93C492.14,196.85 492.18,196.74 492.24,196.6L489.22,188.64L490.67,188.64L492.32,193.24C492.53,193.82 492.73,194.44 492.9,195.08C493.06,194.46 493.24,193.86 493.45,193.27L495.15,188.64L496.5,188.64L493.48,196.72C493.15,197.59 492.9,198.19 492.72,198.52C492.48,198.96 492.21,199.29 491.9,199.5C491.59,199.71 491.22,199.81 490.79,199.81C490.54,199.82 490.25,199.76 489.93,199.65Z" style="fill:white;fill-rule:nonzero;"/>
    </g>
    <defs>
        <linearGradient id="_Linear1" x1="0" y1="0" x2="1" y2="0" gradientUnits="userSpaceOnUse" gradientTransform="matrix(2.11644e-15,-34.5641,34.5641,2.11644e-15,389.394,164.445)"><stop offset="0" style="stop-color:white;stop-opacity:1"/><stop offset="1" style="stop-color:rgb(101,98,92);stop-opacity:1"/></linearGradient>
        <linearGradient id="_Linear2" x1="0" y1="0" x2="1" y2="0" gradientUnits="userSpaceOnUse" gradientTransform="matrix(4.88756e-15,-79.8199,79.8199,4.88756e-15,349.524,175.997)"><stop offset="0" style="stop-color:white;stop-opacity:1"/><stop offset="1" style="stop-color:rgb(101,98,92);stop-opacity:1"/></linearGradient>
    </defs>
</svg>
